<?xml version="1.0" standalone="no"?>
<svg xmlns:xlink="http://www.w3.org/1999/xlink" id="wave" style="transform:rotate(0deg); transition: 0.3s" viewBox="0 0 1440 490" version="1.1" xmlns="http://www.w3.org/2000/svg"><defs><linearGradient id="sw-gradient-0" x1="0" x2="0" y1="1" y2="0"><stop stop-color="rgba(37.5, 140.051, 232.552, 0.3)" offset="0%"/><stop stop-color="rgba(232.552, 228.642, 219.997, 0.27)" offset="100%"/></linearGradient></defs><path style="transform:translate(0, 0px); opacity:1" fill="url(#sw-gradient-0)" d="M0,98L18.5,106.2C36.9,114,74,131,111,155.2C147.7,180,185,212,222,261.3C258.5,310,295,376,332,343C369.2,310,406,180,443,130.7C480,82,517,114,554,155.2C590.8,196,628,245,665,245C701.5,245,738,196,775,155.2C812.3,114,849,82,886,65.3C923.1,49,960,49,997,114.3C1033.8,180,1071,310,1108,310.3C1144.6,310,1182,180,1218,147C1255.4,114,1292,180,1329,236.8C1366.2,294,1403,343,1440,302.2C1476.9,261,1514,131,1551,114.3C1587.7,98,1625,196,1662,261.3C1698.5,327,1735,359,1772,343C1809.2,327,1846,261,1883,220.5C1920,180,1957,163,1994,204.2C2030.8,245,2068,343,2105,334.8C2141.5,327,2178,212,2215,138.8C2252.3,65,2289,33,2326,49C2363.1,65,2400,131,2437,179.7C2473.8,229,2511,261,2548,228.7C2584.6,196,2622,98,2640,49L2658.5,0L2658.5,490L2640,490C2621.5,490,2585,490,2548,490C2510.8,490,2474,490,2437,490C2400,490,2363,490,2326,490C2289.2,490,2252,490,2215,490C2178.5,490,2142,490,2105,490C2067.7,490,2031,490,1994,490C1956.9,490,1920,490,1883,490C1846.2,490,1809,490,1772,490C1735.4,490,1698,490,1662,490C1624.6,490,1588,490,1551,490C1513.8,490,1477,490,1440,490C1403.1,490,1366,490,1329,490C1292.3,490,1255,490,1218,490C1181.5,490,1145,490,1108,490C1070.8,490,1034,490,997,490C960,490,923,490,886,490C849.2,490,812,490,775,490C738.5,490,702,490,665,490C627.7,490,591,490,554,490C516.9,490,480,490,443,490C406.2,490,369,490,332,490C295.4,490,258,490,222,490C184.6,490,148,490,111,490C73.8,490,37,490,18,490L0,490Z"/><defs><linearGradient id="sw-gradient-1" x1="0" x2="0" y1="1" y2="0"><stop stop-color="rgba(62, 144.9, 243, 0.23)" offset="0%"/><stop stop-color="rgba(212.017, 216.796, 218.892, 0.17)" offset="100%"/></linearGradient></defs><path style="transform:translate(0, 50px); opacity:0.9" fill="url(#sw-gradient-1)" d="M0,0L18.5,16.3C36.9,33,74,65,111,122.5C147.7,180,185,261,222,285.8C258.5,310,295,278,332,261.3C369.2,245,406,245,443,277.7C480,310,517,376,554,400.2C590.8,425,628,408,665,343C701.5,278,738,163,775,147C812.3,131,849,212,886,253.2C923.1,294,960,294,997,294C1033.8,294,1071,294,1108,310.3C1144.6,327,1182,359,1218,343C1255.4,327,1292,261,1329,212.3C1366.2,163,1403,131,1440,98C1476.9,65,1514,33,1551,73.5C1587.7,114,1625,229,1662,228.7C1698.5,229,1735,114,1772,89.8C1809.2,65,1846,131,1883,138.8C1920,147,1957,98,1994,81.7C2030.8,65,2068,82,2105,138.8C2141.5,196,2178,294,2215,277.7C2252.3,261,2289,131,2326,130.7C2363.1,131,2400,261,2437,277.7C2473.8,294,2511,196,2548,130.7C2584.6,65,2622,33,2640,16.3L2658.5,0L2658.5,490L2640,490C2621.5,490,2585,490,2548,490C2510.8,490,2474,490,2437,490C2400,490,2363,490,2326,490C2289.2,490,2252,490,2215,490C2178.5,490,2142,490,2105,490C2067.7,490,2031,490,1994,490C1956.9,490,1920,490,1883,490C1846.2,490,1809,490,1772,490C1735.4,490,1698,490,1662,490C1624.6,490,1588,490,1551,490C1513.8,490,1477,490,1440,490C1403.1,490,1366,490,1329,490C1292.3,490,1255,490,1218,490C1181.5,490,1145,490,1108,490C1070.8,490,1034,490,997,490C960,490,923,490,886,490C849.2,490,812,490,775,490C738.5,490,702,490,665,490C627.7,490,591,490,554,490C516.9,490,480,490,443,490C406.2,490,369,490,332,490C295.4,490,258,490,222,490C184.6,490,148,490,111,490C73.8,490,37,490,18,490L0,490Z"/><defs><linearGradient id="sw-gradient-2" x1="0" x2="0" y1="1" y2="0"><stop stop-color="rgba(62, 114.243, 243, 0.22)" offset="0%"/><stop stop-color="rgba(243.936, 240.692, 233.521, 0.35)" offset="100%"/></linearGradient></defs><path style="transform:translate(0, 100px); opacity:0.8" fill="url(#sw-gradient-2)" d="M0,196L18.5,236.8C36.9,278,74,359,111,383.8C147.7,408,185,376,222,334.8C258.5,294,295,245,332,220.5C369.2,196,406,196,443,163.3C480,131,517,65,554,73.5C590.8,82,628,163,665,179.7C701.5,196,738,147,775,155.2C812.3,163,849,229,886,253.2C923.1,278,960,261,997,236.8C1033.8,212,1071,180,1108,138.8C1144.6,98,1182,49,1218,65.3C1255.4,82,1292,163,1329,196C1366.2,229,1403,212,1440,212.3C1476.9,212,1514,229,1551,204.2C1587.7,180,1625,114,1662,130.7C1698.5,147,1735,245,1772,269.5C1809.2,294,1846,245,1883,228.7C1920,212,1957,229,1994,228.7C2030.8,229,2068,212,2105,196C2141.5,180,2178,163,2215,138.8C2252.3,114,2289,82,2326,89.8C2363.1,98,2400,147,2437,147C2473.8,147,2511,98,2548,114.3C2584.6,131,2622,212,2640,253.2L2658.5,294L2658.5,490L2640,490C2621.5,490,2585,490,2548,490C2510.8,490,2474,490,2437,490C2400,490,2363,490,2326,490C2289.2,490,2252,490,2215,490C2178.5,490,2142,490,2105,490C2067.7,490,2031,490,1994,490C1956.9,490,1920,490,1883,490C1846.2,490,1809,490,1772,490C1735.4,490,1698,490,1662,490C1624.6,490,1588,490,1551,490C1513.8,490,1477,490,1440,490C1403.1,490,1366,490,1329,490C1292.3,490,1255,490,1218,490C1181.5,490,1145,490,1108,490C1070.8,490,1034,490,997,490C960,490,923,490,886,490C849.2,490,812,490,775,490C738.5,490,702,490,665,490C627.7,490,591,490,554,490C516.9,490,480,490,443,490C406.2,490,369,490,332,490C295.4,490,258,490,222,490C184.6,490,148,490,111,490C73.8,490,37,490,18,490L0,490Z"/></svg>